<svg version="1.0" xmlns="http://www.w3.org/2000/svg" width="552.000000ptpx" height="387.000000ptpx" viewBox="0 0 552.000000 387.000000" preserveAspectRatio="xMidYMid meet" transform="rotate(0) scale(1, 1)">

<g transform="translate(0.000000,387.000000) scale(0.100000,-0.100000)" fill="#2aa368" stroke="none">
<path d="M262 3698 c-9 -9 -12 -330 -13 -1377 0 -752 -4 -1539 -8 -1751 -4&#10;-212 -5 -395 -3 -407 l4 -23 757 0 757 0 195 227 c203 237 768 816 847 868&#10;l42 28 56 -22 c31 -11 64 -21 75 -21 27 0 24 -11 -15 -53 -29 -32 -40 -37 -78&#10;-37 -24 0 -49 -5 -56 -12 -9 -9 -12 -129 -12 -479 0 -257 3 -474 6 -483 6 -14&#10;117 -16 1164 -16 916 0 1160 3 1167 13 4 6 9 134 11 282 3 219 1 273 -10 289&#10;-14 17 -51 18 -858 24 l-843 5 7 354 c4 195 11 364 16 378 5 13 89 115 187&#10;227 98 112 245 281 326 375 l148 172 90 -6 c129 -9 148 2 251 140 130 176 357&#10;444 490 580 l48 48 27 -19 c16 -11 51 -41 78 -66 48 -44 87 -57 100 -36 12 19&#10;106 594 103 630 -3 29 -7 35 -28 38 -34 4 -600 -209 -614 -231 -15 -24 -1 -42&#10;80 -105 38 -28 70 -56 72 -61 2 -5 -26 -44 -62 -88 -36 -43 -145 -176 -242&#10;-295 -97 -120 -178 -218 -181 -218 -4 0 -32 24 -63 54 -64 61 -112 79 -175 67&#10;-51 -10 -73 -22 -112 -63 -43 -44 -53 -76 -53 -162 0 -108 3 -104 -479 -682&#10;-124 -148 -251 -299 -283 -335 l-58 -66 -35 11 c-34 11 -35 12 -35 64 0 69&#10;-18 109 -68 154 -65 59 -142 63 -228 13 -64 -38 -97 -92 -99 -163 0 -31 -6&#10;-66 -12 -77 -6 -11 -176 -184 -378 -385 -202 -201 -414 -417 -472 -480 -59&#10;-63 -120 -123 -137 -133 -28 -15 -66 -17 -391 -17 -198 0 -365 4 -371 8 -16&#10;10 -30 2238 -14 2258 18 21 -39 101 643 -912 141 -209 262 -385 269 -391 28&#10;-22 59 -22 83 0 13 12 222 320 464 684 243 364 446 665 452 668 6 4 13 5 15 2&#10;3 -3 8 -210 11 -462 l6 -456 38 6 c68 12 216 -81 257 -161 l17 -34 135 155&#10;135 154 6 78 c10 114 23 1684 15 1716 l-6 27 -363 0 c-277 0 -366 -3 -376 -12&#10;-7 -7 -132 -204 -279 -437 -147 -234 -332 -529 -412 -655 -82 -131 -152 -231&#10;-160 -231 -8 0 -47 52 -86 115 -40 63 -216 347 -392 630 -176 283 -332 532&#10;-346 553 l-26 37 -353 0 c-261 0 -356 -3 -365 -12z"/>
</g>
</svg>